HIERARCHY
ROOT Hips
{
  OFFSET 265.287 66.7526 -254.649
  CHANNELS 6 Xposition Yposition Zposition Zrotation Xrotation Yrotation
  JOINT LeftUpLeg
  {
    OFFSET 8.64259 1.95398 -2.38835
    CHANNELS 3 Zrotation Xrotation Yrotation
    JOINT LeftLeg
    {
      OFFSET 43.7702 0 0
      CHANNELS 3 Zrotation Xrotation Yrotation
      JOINT LeftFoot
      {
        OFFSET 40.6238 0 0
        CHANNELS 3 Zrotation Xrotation Yrotation
        JOINT LeftToeBase
        {
          OFFSET 12.7242 0 0
          CHANNELS 3 Zrotation Xrotation Yrotation
          End Site
          {
            OFFSET 0 0 0
          }
        }
      }
    }
  }
  JOINT RightUpLeg
  {
    OFFSET -8.2249 1.95398 -2.59336
    CHANNELS 3 Zrotation Xrotation Yrotation
    JOINT RightLeg
    {
      OFFSET 43.5653 0 0
      CHANNELS 3 Zrotation Xrotation Yrotation
      JOINT RightFoot
      {
        OFFSET 40.6238 0 0
        CHANNELS 3 Zrotation Xrotation Yrotation
        JOINT RightToeBase
        {
          OFFSET 12.7242 0 0
          CHANNELS 3 Zrotation Xrotation Yrotation
          End Site
          {
            OFFSET 0 0 0
          }
        }
      }
    }
  }
  JOINT Spine
  {
    OFFSET 0.165834 0.87714 6.61349
    CHANNELS 3 Zrotation Xrotation Yrotation
    JOINT Spine1
    {
      OFFSET 7.38963 1.71661e-005 0
      CHANNELS 3 Zrotation Xrotation Yrotation
      JOINT Spine2
      {
        OFFSET 11.9445 1.14441e-005 0
        CHANNELS 3 Zrotation Xrotation Yrotation
        JOINT Spine3
        {
          OFFSET 14.7254 4.19617e-005 0
          CHANNELS 3 Zrotation Xrotation Yrotation
          JOINT Spine4
          {
            OFFSET 10.9679 0 0
            CHANNELS 3 Zrotation Xrotation Yrotation
            JOINT RightShoulder
            {
              OFFSET 2.46616 -1.6653 3.69651
              CHANNELS 3 Zrotation Xrotation Yrotation
              JOINT RightArm
              {
                OFFSET 13.0012 0 0
                CHANNELS 3 Zrotation Xrotation Yrotation
                JOINT RightForeArm
                {
                  OFFSET 28.7848 1.52588e-005 0
                  CHANNELS 3 Zrotation Xrotation Yrotation
                  JOINT RightHand
                  {
                    OFFSET 26.5688 1.52588e-005 0
                    CHANNELS 3 Zrotation Xrotation Yrotation
                    End Site
                    {
                      OFFSET 0 0 0
                    }
                  }
                }
              }
            }
            JOINT LeftShoulder
            {
              OFFSET 2.38034 -1.29275 -3.7523
              CHANNELS 3 Zrotation Xrotation Yrotation
              JOINT LeftArm
              {
                OFFSET 16.3182 6.10351e-005 0
                CHANNELS 3 Zrotation Xrotation Yrotation
                JOINT LeftForeArm
                {
                  OFFSET 27.0901 0 0
                  CHANNELS 3 Zrotation Xrotation Yrotation
                  JOINT LeftHand
                  {
                    OFFSET 24.5451 1.52588e-005 0
                    CHANNELS 3 Zrotation Xrotation Yrotation
                    End Site
                    {
                      OFFSET 0 0 0
                    }
                  }
                }
              }
            }
            JOINT Neck
            {
              OFFSET 5.0226 -0.0266342 0
              CHANNELS 3 Zrotation Xrotation Yrotation
              JOINT Head
              {
                OFFSET 6.69364 2.86102e-005 0
                CHANNELS 3 Zrotation Xrotation Yrotation
                End Site
                {
                  OFFSET 0 0 0
                }
              }
            }
          }
        }
      }
    }
  }
}
MOTION
Frames:	18
Frame Time:	0.0416667
-272.909 93.0846 254.567 81.4364 58.9256 97.1954 175.67 9.50902 84.4359 -13.3511 25.2272 8.841 59.5969 1.76951 7.69726 34.1837 -1.73145 0.907131 174.305 9.49707 87.7263 -16.4287 -1.77486 1.25281 53.9276 9.99082 -0.466123 48.3598 -2.79942 0.385207 -2.59985 5.74129 -89.9927 15.4278 -5.1352 0.807375 3.76662 -5.0947 1.03318 -18.8494 -5.13981 -0.777492 1.16325 -5.13983 -0.777496 103.855 -60.6677 -79.8528 23.1987 -4.16599 -2.54864 -1.33314 -18.2376 -14.4024 -8.05497 -0.45159 1.4295 -77.4667 -48.0143 97.4556 -31.606 14.4328 -13.7046 8.51824 42.6115 -14.6864 17.2492 1.03298 2.12039 -2.34021 -9.65802 -0.545288 -16.344 -8.98636 -5.21371 
-273.101 93.1277 254.019 83.464 58.105 97.2364 176.14 9.16554 85.5462 -15.8611 24.7434 9.38382 61.4322 2.78652 9.26841 33.0706 -1.29166 -0.548162 174.187 7.15689 88.9068 -14.2106 -2.31594 1.79998 53.1544 9.5854 -0.392563 48.446 -2.80919 0.42401 -2.48314 5.89568 -90.1613 15.1088 -4.99174 0.423942 3.44733 -4.96823 0.643763 -19.1627 -4.88781 -1.09959 0.849929 -4.88779 -1.09959 103.959 -60.6575 -79.7108 23.301 -4.11373 -2.5025 -1.29959 -18.0922 -14.2959 -8.46303 -0.421894 0.637978 -77.5953 -48.0894 97.2553 -31.3164 16.5968 -13.5776 5.86056 38.9647 -12.7116 22.4708 1.49615 2.83653 -1.90314 -9.41093 -0.390628 -16.5429 -8.70198 -5.57013 
-273.04 93.0969 254.661 81.4362 58.7275 97.3595 175.754 9.77004 84.5123 -13.8029 25.3801 8.83514 60.0876 2.1724 9.11669 33.2922 -1.35699 -0.598278 174.319 9.20187 87.966 -15.611 -2.08585 1.32825 54.0724 9.36153 -1.6673 48.2625 -2.768 0.685731 -2.56893 5.75883 -90.0138 15.3907 -5.08496 0.755199 3.72934 -5.0468 0.978828 -18.8849 -5.07622 -0.812016 1.12772 -5.07624 -0.812023 103.969 -60.5662 -79.6942 23.3573 -3.94777 -2.42217 -1.4664 -18.0693 -14.3917 -8.17016 -0.363864 0.00513165 -77.642 -48.3804 97.1821 -31.0982 16.556 -13.7216 5.87401 39.5503 -12.6164 22.142 1.32817 2.16735 -0.780458 -8.47664 -0.0684908 -16.5863 -7.77869 -5.70975 
-273.165 93.1162 254.712 81.8345 58.3133 97.4758 175.935 9.88957 84.8929 -14.3597 25.173 8.90149 60.2808 2.26526 9.19628 33.3706 -1.39202 -0.457109 174.284 8.46104 88.4422 -14.2618 -2.79639 1.55178 53.9691 8.7082 -3.23641 48.0983 -2.72561 1.02714 -2.50487 5.79734 -90.0752 15.3096 -4.98992 0.61116 3.64798 -4.95817 0.830698 -18.9629 -4.94232 -0.920573 1.04978 -4.94232 -0.920568 104.008 -60.3119 -79.6325 23.4474 -3.89739 -2.64242 -1.51631 -18.6116 -14.4986 -7.98056 -0.412523 0.888247 -77.7207 -48.4809 97.0601 -31.2229 15.7842 -13.9665 6.4262 41.2855 -12.6392 19.9493 0.860162 0.415096 0.55675 -6.53527 0.706289 -16.7169 -5.8708 -6.2718 
-273.358 93.1147 254.806 82.2851 58.0895 97.4788 175.983 10.054 85.185 -14.9053 25.0505 9.01825 59.8549 1.95859 8.42917 34.2991 -1.74976 0.639667 173.914 7.573 88.6984 -12.6213 -4.06648 2.11911 53.9932 7.88087 -5.627 47.7597 -2.6568 1.45266 -2.46513 5.86172 -90.1483 15.1766 -4.94893 0.449084 3.51497 -4.92434 0.666986 -19.0939 -4.85452 -1.06266 0.91873 -4.85451 -1.06266 103.91 -59.8288 -79.7539 23.7963 -3.70103 -2.94638 -1.58398 -18.1487 -14.2457 -7.60374 -0.324043 -0.233819 -77.8355 -49.0362 96.8834 -30.7713 15.6925 -14.2375 6.50097 41.2915 -12.6679 17.9069 0.665012 -0.147116 2.64913 -4.35037 1.30693 -16.445 -3.81814 -6.20931 
-273.513 93.2204 254.938 82.7626 57.6168 97.3066 176.141 9.75957 85.3759 -14.5937 24.9421 8.98337 60.0004 2.15788 9.255 33.4618 -1.4314 -0.278375 173.388 6.72678 88.8533 -11.0248 -5.30159 2.77187 54.3544 6.32379 -8.03401 46.4661 -2.46126 2.05068 -2.37662 5.93141 -90.1862 15.0334 -4.79391 0.340153 3.37116 -4.77427 0.551284 -19.2327 -4.67401 -1.11959 0.779979 -4.67399 -1.11959 104.027 -59.7866 -79.5908 23.6088 -4.00553 -3.26879 -1.43345 -18.1526 -14.3752 -7.9366 -0.377382 0.38017 -78.1602 -49.24 96.3859 -30.4539 15.9606 -14.5347 6.27725 40.5438 -12.6173 15.8874 0.675349 0.385672 3.84392 -1.96861 0.988905 -14.599 -1.6155 -5.13699 
-273.625 93.1836 255.077 83.4525 57.3059 97.0708 176.39 9.90292 85.6991 -15.3686 24.703 8.95287 60.1037 2.1483 9.02986 33.9846 -1.6205 0.138306 173.276 5.70481 89.2869 -9.42543 -6.2935 3.09288 54.5095 5.098 -10.8148 46.0222 -2.37099 2.96145 -2.31347 6.01616 -90.236 14.86 -4.69486 0.214877 3.19752 -4.68086 0.421756 -19.4028 -4.54193 -1.20905 0.60983 -4.54193 -1.20906 103.8 -59.6277 -79.9012 23.8847 -3.74763 -3.47196 -1.41945 -17.7773 -14.1363 -8.06128 -0.380718 0.332186 -78.2462 -49.2624 96.2541 -30.3663 16.003 -14.9209 6.43355 40.8054 -12.81 13.3861 0.622187 0.78937 4.60313 0.592299 0.520061 -12.1237 0.770452 -3.67321 
-273.675 93.078 255.207 83.6089 56.9849 97.3662 176.631 10.6262 86.1119 -16.914 24.377 8.9848 61.0179 2.56252 9.27622 33.6025 -1.47498 -0.301328 173.525 4.71072 89.9577 -7.34433 -7.09001 3.16978 54.2734 4.18383 -13.6317 46.0036 -2.33344 3.8387 -2.23004 6.07634 -90.3133 14.735 -4.56906 0.033322 3.07204 -4.56315 0.234796 -19.5237 -4.36743 -1.34408 0.488922 -4.36742 -1.34409 103.856 -59.431 -79.8178 23.9161 -3.84197 -3.70629 -1.34279 -17.738 -14.1548 -8.39682 -0.457485 1.22827 -78.4302 -49.6227 95.9768 -30.0244 15.9215 -15.2913 6.42317 39.9914 -12.9222 10.3467 0.609227 1.91559 5.51097 2.5281 0.0888031 -9.35117 2.58247 -2.07947 
-273.732 92.978 255.315 83.5066 56.5126 97.7815 176.635 11.1511 86.3728 -17.8611 24.3724 9.18713 61.3906 2.78896 9.91751 33.7942 -1.52989 -0.37382 173.571 4.0172 90.4732 -5.62933 -7.89744 3.44089 54.8827 2.66164 -16.141 44.62 -2.16061 4.66166 -2.12602 6.11235 -90.374 14.6586 -4.3934 -0.118282 2.99509 -4.39432 0.0755681 -19.595 -4.15437 -1.43551 0.417613 -4.15438 -1.43552 104.041 -59.1289 -79.5513 24.2022 -3.59027 -4.02435 -1.43437 -18.1063 -13.8869 -8.26535 -0.441056 1.09263 -78.7736 -49.3138 95.4467 -30.2708 16.4724 -15.3998 4.96377 36.2314 -11.64 9.78242 0.609953 2.20199 6.07877 4.63721 -0.453694 -8.12861 4.66417 -0.364105 
-273.727 92.8267 255.423 82.6054 55.9886 98.1776 176.441 11.6997 86.0421 -17.7294 24.6516 9.19858 60.6354 2.49927 10.7215 35.5858 -2.13569 0.546938 173.177 4.56701 90.31 -5.45565 -9.25619 3.88316 56.2315 0.675341 -18.6605 44.2495 -2.14108 3.91239 -2.03924 6.09694 -90.4312 14.6861 -4.24979 -0.25269 3.02212 -4.25677 -0.0650675 -19.5634 -3.97704 -1.52025 0.449229 -3.97705 -1.52025 104.229 -58.5572 -79.2688 24.5536 -3.38584 -4.1707 -1.66345 -17.5931 -14.3905 -8.33106 -0.522501 2.16405 -79.2696 -50.5417 94.7206 -29.1275 16.1351 -15.5418 4.94007 36.1334 -11.6298 7.75588 0.492319 2.19073 7.18282 5.81485 0.204852 -6.73012 5.62454 1.38155 
-273.506 92.7592 255.588 82.9196 55.4493 97.8597 176.53 11.7889 86.0279 -18.3516 25.9959 9.23987 59.7047 2.32202 13.3073 37.4377 -2.6872 0.283703 173.101 3.85169 90.5704 -4.1654 -10.4379 4.14061 56.3416 -0.562866 -21.1197 46.2596 -2.36227 3.8317 -1.91171 6.2611 -90.53 14.3517 -4.04708 -0.497458 2.68705 -4.06503 -0.318576 -19.8916 -3.71021 -1.69237 0.121039 -3.71022 -1.69238 104.448 -57.9194 -78.9361 24.8371 -3.09432 -5.16885 -1.72801 -16.7632 -13.4789 -7.79339 -0.237109 -1.7218 -80.3082 -51.5148 93.1951 -28.0362 15.5558 -16.6838 4.85859 37.0202 -11.1115 5.5942 0.385232 2.4802 8.96377 7.16725 1.19954 -5.81902 6.71301 2.30323 
-273.02 92.7316 255.599 82.4767 55.0497 98.033 175.974 12.0063 86.0238 -18.519 23.0335 9.57651 61.5841 3.02132 11.32 35.2293 -1.98593 -0.188607 172.74 3.20678 90.5028 -2.34969 -11.8259 4.72041 55.9659 -1.10129 -23.0563 46.6556 -2.40286 3.90609 -1.80821 6.3658 -90.6313 14.1373 -3.89208 -0.732778 2.47202 -3.92056 -0.560533 -20.101 -3.49174 -1.8699 -0.0883126 -3.49174 -1.86991 104.275 -57.5791 -79.1691 24.2314 -3.72536 -5.32662 -1.83201 -16.5205 -15.1698 -7.54399 -0.395195 1.0337 -81.3848 -52.4168 91.6457 -26.8943 15.2911 -17.9608 4.54172 36.1615 -10.5763 2.14871 0.294512 5.44502 8.87343 7.64698 0.366791 -4.06613 7.38355 5.37185 
-272.06 92.6583 255.434 83.2407 54.7459 96.8784 175.542 11.2203 85.7735 -18.683 21.3348 9.85387 62.5937 3.41567 10.341 35.122 -1.97705 0.235297 172.328 2.49346 90.2219 -2.53318 -12.2648 4.97713 56.5583 -1.80501 -23.4224 46.8364 -2.44271 3.4687 -1.69895 6.49271 -90.7002 13.8796 -3.70939 -0.907759 2.21377 -3.74574 -0.743411 -20.3536 -3.26495 -1.9816 -0.340911 -3.26494 -1.9816 104.568 -56.9089 -78.725 24.2007 -3.64138 -5.4062 -1.98517 -16.304 -15.8824 -7.59186 -0.477446 2.28528 -82.591 -53.5936 89.9611 -25.4597 15.6487 -19.0727 3.78753 34.84 -9.57626 1.18369 0.262674 6.97058 8.10518 7.69514 -0.445691 -4.99626 7.53156 7.6691 
-270.59 92.4347 255.108 84.592 53.8443 95.2918 175.097 10.7229 85.7864 -20.5578 20.3869 9.54304 63.2014 4.25941 12.0671 36.9768 -2.54836 0.378666 171.339 2.09439 89.7565 -4.31423 -14.6387 5.85249 57.6003 -2.65401 -24.5619 46.9781 -2.4379 3.88063 -1.51659 6.63975 -90.787 13.5812 -3.38962 -1.1365 1.9143 -3.43636 -0.986061 -20.6443 -2.89131 -2.10327 -0.631686 -2.89133 -2.10327 104.545 -56.2557 -78.7319 24.0059 -3.47001 -5.13096 -1.38649 -14.9833 -14.1871 -9.4638 -0.2717 -2.04036 -83.6565 -54.9157 88.537 -24.0604 15.6889 -19.3202 3.79385 32.9781 -9.31321 1.8902 0.231258 4.14428 7.02 6.09822 -1.32655 -6.70734 5.9672 10.0681 
-268.922 91.5613 254.91 85.0947 52.8976 95.6047 171.915 16.2924 86.7944 -32.3912 13.442 8.90197 63.175 5.06749 10.7057 42.1651 -4.07101 3.13872 171.387 4.38902 90.7847 -11.2271 -15.956 6.2427 60.9644 -3.87283 -24.8988 45.7381 -2.34829 2.69391 -1.15703 6.82414 -90.9349 13.2079 -2.74685 -1.52889 1.53916 -2.81147 -1.40646 -21.0047 -2.16046 -2.28381 -0.992003 -2.16044 -2.28381 104.855 -56.7393 -78.3073 23.285 -3.12963 -4.82314 -1.89397 -17.3376 -15.4533 -9.90218 -0.611767 2.18894 -84.1407 -54.4041 87.7924 -23.9561 15.2728 -19.8578 4.59988 30.6778 -9.63847 2.62137 0.00859673 -2.16338 8.38946 2.47546 -3.28253 -10.7038 2.43143 11.0002 
-266.828 90.8343 254.602 83.9329 51.189 97.1261 170.948 26.3122 88.112 -48.294 7.65581 7.00761 62.107 4.52 9.38858 44.5236 -4.5979 7.29783 172.917 6.8746 92.8002 -17.3216 -14.3745 5.05103 64.0106 -4.24645 -22.376 45.0163 -2.23515 3.53026 -0.65068 6.86748 -91.0545 13.1203 -1.79891 -1.88671 1.44934 -1.88016 -1.80574 -21.0797 -1.14888 -2.33995 -1.06705 -1.14887 -2.33996 103.091 -57.9419 -80.8576 21.3186 -2.7377 -4.2529 -0.818952 -17.5438 -13.0121 -10.6768 -0.660147 2.15019 -83.7994 -54.9752 88.3387 -22.6864 15.7066 -20.1829 5.81099 30.888 -11.8156 4.28309 0.0348133 -2.20152 6.86294 1.17332 -2.98725 -9.0557 1.2884 9.15262 
-264.362 90.725 253.803 81.3889 48.1786 98.8107 175.843 32.9648 87.9979 -47.9766 9.97667 4.00112 62.0704 3.74452 7.69614 44.5098 -4.67257 4.98404 174.475 8.49577 93.7315 -19.4609 -12.9602 3.63658 64.9501 -3.02462 -17.1376 45.5187 -2.28421 3.74536 0.0121724 6.77453 -90.877 13.3186 -0.399182 -1.70507 1.64667 -0.47385 -1.68586 -20.8795 0.131616 -1.74621 -0.866859 0.131624 -1.7462 103.874 -60.3061 -79.817 19.9117 -1.75575 -5.5598 -0.0110756 -18.4835 -9.53734 -10.1411 -0.484042 0.38747 -82.9668 -51.5451 89.2346 -24.9713 16.815 -18.5424 7.27345 30.8021 -14.2014 4.93788 0.112444 -1.19356 10.3122 -0.178936 -7.3219 -11.5838 0.732305 10.8278 
-261.752 90.9823 252.68 80.8629 44.977 99.0808 179.891 33.2519 87.3919 -31.227 8.36931 2.50101 57.4444 0.811838 4.06439 42.0985 -4.05076 4.70377 176.675 8.59702 94.7873 -21.835 -6.5919 1.33175 66.8688 -2.45153 -6.098 44.7453 -2.24105 2.15752 0.475718 6.72562 -90.9956 13.4226 0.462154 -2.05255 1.75007 0.371393 -2.07089 -20.775 1.05755 -1.81889 -0.762375 1.05756 -1.8189 101.932 -58.3098 -82.4997 20.6464 -1.93961 -5.54106 -0.12557 -19.0137 -10.3849 -10.9331 -0.807807 3.55581 -83.3641 -54.6782 88.9354 -23.9713 14.3288 -15.7508 4.57166 27.4854 -9.48003 5.65948 -0.209522 -6.11993 9.33304 -0.780803 -3.02981 -10.4234 -0.55526 7.47814 
